<svg width="64" height="64" viewBox="0 0 64 64" fill="none" xmlns="http://www.w3.org/2000/svg">
<path fill-rule="evenodd" clip-rule="evenodd" d="M58.4815 45.2126L47.5154 45.1997C42.4368 45.1933 37.9656 46.1133 34.7157 47.6552L34.7528 18.0777C34.7544 16.2296 39.746 13.5598 47.5541 13.5679L58.5202 13.5824L58.4815 45.2126ZM29.2391 47.6488C25.9925 46.0988 21.5229 45.1675 16.4459 45.161L5.47982 45.1481L5.5185 13.5179L16.4846 13.5308C24.291 13.5405 29.2778 16.2232 29.2746 18.0713L29.2391 47.6488ZM60.3441 9.0693L47.5589 9.0548C40.8384 9.04513 35.1911 10.6483 32.0201 13.1747C28.8541 10.6403 23.2099 9.02418 16.4894 9.01613L3.70585 9.00002C1.68858 8.9984 0.0451174 10.3502 0.041895 12.013L1.18605e-06 46.6498C-0.00161005 48.311 1.63863 49.6677 3.6559 49.6693L16.4411 49.6854C21.3119 49.6918 26.6096 51.4191 28.4996 53.0529C29.3632 53.7957 30.5507 54.2178 31.801 54.2194H32.1652C33.3977 54.221 34.5756 53.8021 35.4344 53.069C37.3276 51.44 42.6285 49.7176 47.509 49.7241L60.2941 49.7386C62.3114 49.7418 63.9549 48.39 63.9565 46.7272L64 12.0904C64.0016 10.4276 62.3614 9.07252 60.3441 9.0693Z" fill="#62CCCA"/>
<path fill-rule="evenodd" clip-rule="evenodd" d="M16.4443 50.6139L3.65912 50.5983C1.64346 50.5967 0.00161299 49.2809 0.00483546 47.6696L1.32959e-06 51.1406C-0.00160991 52.5705 1.46139 53.7426 3.24987 53.7457L28.3642 53.7754C26.3711 52.222 21.2087 50.6202 16.4443 50.6139Z" fill="#00A19C"/>
<path fill-rule="evenodd" clip-rule="evenodd" d="M60.299 50.6659L47.5138 50.6503C42.7477 50.6456 37.5918 52.2365 35.5874 53.7837L60.7002 53.8134C62.4902 53.8149 63.9549 52.646 63.9581 51.216L63.9613 47.7451C63.9597 49.3579 62.3162 50.6675 60.299 50.6659Z" fill="#00A19C"/>
</svg>
