<svg width="64" height="64" viewBox="0 0 64 64" fill="none" xmlns="http://www.w3.org/2000/svg">
<g clip-path="url(#clip0_531_802)">
<path d="M15.1569 35.5159H10.9202C12.0797 42.5405 16.668 48.4079 22.909 51.3447C24.3115 52.0063 25.7994 52.5202 27.3508 52.8619L31.9989 64V53.3709V49.2038C28.0819 49.2038 24.4726 47.8941 21.5797 45.6896C18.3464 43.2252 16.0125 39.6403 15.1569 35.5159Z" fill="#00A19C"/>
<path d="M48.8434 28.4866H53.0802C51.9206 21.462 47.3323 15.5933 41.0913 12.6565C39.6876 11.9937 38.2009 11.4811 36.6495 11.1381L31.999 2.74756e-06V10.6303V14.7975C35.9184 14.7975 39.5277 16.1059 42.4206 18.3116C45.654 20.7748 47.9878 24.3609 48.8434 28.4866Z" fill="#00A19C"/>
<path d="M18.3116 21.5802C20.7748 18.3468 24.3597 16.013 28.4841 15.1574V10.9194C21.4608 12.0802 15.5933 16.6685 12.6565 22.9083C11.9937 24.3132 11.4823 25.7999 11.1381 27.3513L0 32.0006H10.6303H14.7962C14.7962 28.0836 16.1059 24.4731 18.3116 21.5802Z" fill="#62CCCA"/>
<path d="M53.3705 32.0011H49.2033C49.2033 35.918 47.8948 39.5274 45.6892 42.4202C43.226 45.6536 39.641 47.9874 35.5142 48.8431V53.081C42.54 51.9202 48.4099 47.3319 51.3442 41.0922C52.007 39.6873 52.5197 38.2006 52.8627 36.6492L64.0007 32.0011H53.3705Z" fill="#62CCCA"/>
<path d="M29.1079 41.0566H34.8887V34.6691H41.2786V28.8871H34.8887V22.4997H29.1079V28.8871H22.7229V34.6691H29.1079V41.0566Z" fill="#00A19C"/>
</g>
<defs>
<clipPath id="clip0_531_802">
<rect width="64" height="64" fill="white"/>
</clipPath>
</defs>
</svg>
