<svg width="64" height="64" viewBox="0 0 64 64" fill="none" xmlns="http://www.w3.org/2000/svg">
<g clip-path="url(#clip0_531_785)">
<path d="M11.9565 0.999985H13.6793C17.1943 1.62675 19.7251 4.37945 19.6573 7.97404C19.5726 12.375 14.5602 16.515 9.69339 13.9537C7.39129 12.7426 4.90624 9.32922 6.43251 5.3484C7.25408 3.20383 9.01411 1.62675 11.9565 0.999985Z" fill="#00A19C"/>
<path d="M0 36.0328V19.3642C0.455677 17.9412 0.914742 16.9113 2.17336 16.2845C2.92548 15.9102 5.97123 15.3884 7.42804 15.8305C7.79563 15.9423 8.30721 16.6623 8.60535 17.0078C9.44217 17.9819 11.2988 20.2704 12.5912 20.2704C13.0673 20.2704 13.9125 19.6606 14.4038 19.3642C15.9826 18.4105 16.8482 17.2721 17.8459 15.8305H33.6083C35.3192 15.8305 37.5552 15.5273 38.6817 16.0135C40.6247 16.8452 40.8144 22.3133 38.6817 22.9875C37.606 23.3263 35.907 22.9875 34.4248 22.9875H21.1068V50.4366C21.1068 53.0927 21.5913 57.3463 20.9256 59.4959C20.2429 61.7048 17.5647 62.7924 15.3101 61.6693C14.3293 61.1814 13.8566 60.3835 13.135 59.4959C11.7917 63.1159 5.76795 63.2413 5.07173 59.2232C4.80748 57.6918 5.07173 55.7489 5.07173 53.9685V38.0266C2.57822 38.1638 0.28628 38.1028 0 36.0328Z" fill="#00A19C"/>
<path d="M63.8527 36.8727V18.6998C63.8527 13.8652 64.7759 7.606 61.4964 6.03231C59.572 5.1091 55.9283 5.50717 53.2535 5.50717H44.4652C44.677 2.65284 42.7899 1.82449 40.3895 1.48909H38.2162C35.7532 1.8211 33.8457 2.69349 33.9592 5.50548H23.9936V10.5738C31.9671 10.7331 40.2557 10.6619 48.7255 10.6619C51.9238 10.6619 56.384 10.1503 57.873 11.7105C59.4975 13.4061 58.8707 18.4745 58.8707 21.9319V37.6587C58.8707 40.5604 59.1773 43.3775 57.4207 44.3871C55.786 45.3238 52.2236 44.9088 49.4489 44.9088H24.0851C23.8751 46.3385 24.0529 48.1409 23.9936 49.7146H38.9463C35.9378 53.6734 32.9869 57.6983 30.0987 61.796H34.2659C36.6696 58.8265 38.8887 55.6418 41.3314 52.7197C43.7961 55.9382 46.2524 59.1652 48.8526 62.2245H52.9283C50.0672 58.1201 46.6843 53.7818 43.4658 49.7146H50.8989C53.8176 49.7146 56.904 50.0009 59.777 49.7146C61.8995 49.5046 63.5901 48.2138 63.8527 45.9574C64.1847 43.1048 63.8527 39.9404 63.8527 36.8727" fill="#62CCCA"/>
</g>
<defs>
<clipPath id="clip0_531_785">
<rect width="64" height="64" fill="white"/>
</clipPath>
</defs>
</svg>
